<?xml version="1.0" standalone="no"?>
<!DOCTYPE svg PUBLIC "-//W3C//DTD SVG 20010904//EN"
 "http://www.w3.org/TR/2001/REC-SVG-20010904/DTD/svg10.dtd">
<svg version="1.0" xmlns="http://www.w3.org/2000/svg"
 width="1016.000000pt" height="1016.000000pt" viewBox="0 0 1016.000000 1016.000000"
 preserveAspectRatio="xMidYMid meet">
<metadata>
Created by potrace 1.11, written by Peter Selinger 2001-2013
</metadata>
<g transform="translate(0.000000,1016.000000) scale(0.100000,-0.100000)"
fill="#000000" stroke="none">
<path d="M8396 7003 c-1 -1 -33 -5 -72 -8 -38 -3 -82 -7 -99 -10 -16 -2 -50
-6 -75 -10 -25 -3 -67 -10 -95 -15 -27 -5 -64 -11 -82 -14 -17 -2 -35 -6 -40
-9 -4 -3 -30 -8 -57 -11 -27 -4 -53 -9 -58 -12 -5 -3 -21 -7 -36 -10 -15 -3
-54 -12 -87 -20 -33 -9 -67 -17 -75 -19 -8 -2 -40 -11 -70 -20 -30 -9 -62 -17
-70 -19 -8 -2 -22 -6 -30 -8 -8 -3 -89 -29 -180 -57 -91 -29 -172 -55 -180
-58 -8 -4 -17 -7 -20 -7 -3 -1 -18 -6 -35 -13 -16 -6 -70 -25 -120 -43 -120
-44 -312 -118 -352 -136 -17 -8 -34 -14 -37 -14 -3 0 -25 -8 -49 -19 -141 -62
-272 -116 -279 -113 -4 1 -8 -2 -8 -6 0 -4 -17 -14 -37 -21 -21 -8 -69 -28
-108 -46 -38 -18 -101 -47 -140 -65 -38 -18 -74 -34 -80 -35 -14 -4 -338 -161
-549 -267 l-178 -89 -37 17 c-20 10 -42 19 -49 20 -8 1 -22 10 -31 18 -10 9
-21 16 -24 16 -4 0 -85 38 -180 85 -95 47 -179 85 -185 85 -7 0 -12 5 -12 10
0 6 -4 10 -9 10 -5 0 -47 17 -93 39 -82 38 -129 59 -238 108 -30 13 -68 30
-85 38 -112 52 -143 65 -148 65 -3 0 -36 14 -74 32 -37 17 -72 32 -78 34 -11
3 -169 67 -220 89 -50 22 -199 79 -210 81 -5 1 -35 12 -65 24 -30 12 -66 26
-80 31 -14 4 -83 29 -155 54 -71 25 -137 48 -145 50 -8 2 -43 13 -78 24 -69
22 -147 44 -147 41 0 -1 -18 5 -40 14 -35 13 -208 60 -261 70 -11 2 -37 9 -59
14 -54 15 -97 23 -285 57 -14 3 -35 7 -48 9 -13 3 -51 8 -85 12 -34 3 -75 8
-92 11 -16 2 -113 5 -215 7 -194 4 -301 -5 -398 -33 -18 -5 -35 -10 -37 -10
-15 -2 -61 -15 -70 -20 -5 -3 -17 -6 -25 -8 -14 -2 -61 -24 -70 -33 -3 -3 -27
-16 -55 -30 -56 -28 -156 -123 -201 -190 -51 -76 -87 -171 -119 -315 -20 -88
-23 -100 -25 -100 -1 0 -3 -10 -6 -22 -2 -13 -29 -123 -59 -245 -31 -123 -57
-232 -60 -243 -2 -11 -8 -35 -14 -53 -5 -18 -10 -33 -10 -35 1 -3 -7 -38 -31
-137 -11 -47 -22 -94 -24 -106 -2 -11 -11 -49 -20 -85 -9 -35 -18 -77 -20 -94
-3 -16 -7 -37 -10 -45 -3 -8 -8 -26 -10 -40 -3 -14 -7 -36 -10 -50 -5 -21 -18
-90 -51 -265 -11 -57 -18 -110 -19 -127 0 -10 -3 -18 -6 -18 -3 0 -5 -12 -6
-27 0 -16 -3 -55 -7 -88 -27 -224 -28 -517 -1 -655 57 -298 201 -500 449 -632
93 -48 278 -105 410 -124 82 -12 306 -6 391 10 12 3 39 7 60 11 77 12 94 16
231 50 76 20 145 37 153 40 34 9 201 66 280 95 47 17 108 40 135 50 56 20 185
73 230 95 17 7 66 29 110 48 44 20 103 45 130 58 28 13 52 24 55 24 3 1 57 27
120 57 63 31 119 56 124 56 5 0 12 4 15 9 3 4 58 34 121 66 153 76 346 178
445 234 44 25 103 57 130 71 28 13 52 28 53 33 2 5 8 9 13 9 5 0 64 32 130 70
67 39 125 70 130 70 5 0 9 4 9 9 0 5 9 13 21 16 17 6 65 33 199 114 8 5 71 43
140 85 69 41 186 113 260 160 159 100 220 136 230 136 5 0 57 -32 117 -70 59
-39 115 -73 123 -77 8 -3 41 -24 72 -45 31 -21 60 -38 63 -38 4 0 25 -12 48
-27 23 -16 51 -33 62 -40 11 -6 101 -60 200 -119 222 -134 252 -151 293 -169
17 -9 32 -20 32 -25 0 -6 7 -10 15 -10 9 0 34 -12 56 -26 41 -25 70 -42 184
-104 33 -18 83 -45 110 -60 162 -91 641 -333 830 -420 375 -172 771 -320 1018
-381 100 -25 124 -30 150 -34 16 -3 32 -7 36 -9 4 -3 30 -8 57 -12 27 -3 58
-8 69 -10 40 -9 172 -17 255 -17 178 0 352 42 530 126 64 30 178 108 212 144
10 10 27 27 39 38 21 20 123 169 125 183 0 4 10 27 22 52 33 72 63 193 79 325
13 106 4 474 -13 536 -2 9 -7 40 -9 70 -3 30 -7 65 -10 79 -3 14 -7 43 -11 65
-13 90 -74 393 -83 417 -5 14 -8 28 -5 31 2 2 0 15 -5 29 -5 14 -12 38 -14 54
-6 32 -41 185 -57 249 -6 22 -13 51 -16 65 -3 14 -14 61 -25 105 -39 151 -69
274 -74 300 -2 11 -15 63 -29 115 -15 52 -29 111 -32 130 -3 19 -8 38 -11 42
-2 5 -6 18 -8 30 -47 258 -147 423 -324 533 -9 6 -23 14 -31 20 -8 5 -17 10
-20 11 -3 0 -26 10 -52 22 -45 20 -120 45 -143 47 -5 1 -19 4 -30 8 -22 7 -81
16 -160 24 -51 5 -315 10 -319 6z"/>
</g>
</svg>
